<svg width="139" height="27" viewBox="0 0 139 27" fill="none" xmlns="http://www.w3.org/2000/svg">
<path d="M0.911621 17.04C0.911621 15.2053 1.25295 13.5946 1.93562 12.208C2.63962 10.8213 3.58895 9.75465 4.78362 9.00798C5.97829 8.26132 7.31162 7.88798 8.78362 7.88798C10.0423 7.88798 11.141 8.14398 12.0796 8.65598C13.0396 9.16798 13.7756 9.83998 14.2876 10.672V8.14398H19.7596V26H14.2876V23.472C13.7543 24.304 13.0076 24.976 12.0476 25.488C11.109 26 10.0103 26.256 8.75162 26.256C7.30095 26.256 5.97829 25.8826 4.78362 25.136C3.58895 24.368 2.63962 23.2906 1.93562 21.904C1.25295 20.496 0.911621 18.8746 0.911621 17.04ZM14.2876 17.072C14.2876 15.7066 13.9036 14.6293 13.1356 13.84C12.389 13.0506 11.4716 12.656 10.3836 12.656C9.29562 12.656 8.36762 13.0506 7.59962 13.84C6.85295 14.608 6.47962 15.6746 6.47962 17.04C6.47962 18.4053 6.85295 19.4933 7.59962 20.304C8.36762 21.0933 9.29562 21.488 10.3836 21.488C11.4716 21.488 12.389 21.0933 13.1356 20.304C13.9036 19.5146 14.2876 18.4373 14.2876 17.072Z" fill="black"/>
<path d="M29.1904 2.31998V26H23.7184V2.31998H29.1904Z" fill="black"/>
<path d="M43.1079 21.36V26H40.3239C38.3399 26 36.7932 25.52 35.6839 24.56C34.5745 23.5786 34.0199 21.9893 34.0199 19.792V12.688H31.8439V8.14398H34.0199V3.79198H39.4919V8.14398H43.0759V12.688H39.4919V19.856C39.4919 20.3893 39.6199 20.7733 39.8759 21.008C40.1319 21.2426 40.5585 21.36 41.1559 21.36H43.1079Z" fill="black"/>
<path d="M61.0679 10.64C60.6625 9.89332 60.0759 9.32798 59.3079 8.94398C58.5612 8.53865 57.6759 8.33598 56.6519 8.33598C54.8812 8.33598 53.4625 8.92265 52.3959 10.096C51.3292 11.248 50.7959 12.7946 50.7959 14.736C50.7959 16.8053 51.3505 18.4266 52.4599 19.6C53.5905 20.752 55.1372 21.328 57.0999 21.328C58.4439 21.328 59.5745 20.9866 60.4919 20.304C61.4305 19.6213 62.1132 18.64 62.5399 17.36H55.5959V13.328H67.4999V18.416C67.0945 19.7813 66.4012 21.0506 65.4199 22.224C64.4599 23.3973 63.2332 24.3467 61.7399 25.072C60.2465 25.7973 58.5612 26.16 56.6839 26.16C54.4652 26.16 52.4812 25.68 50.7319 24.72C49.0039 23.7386 47.6492 22.384 46.6679 20.656C45.7079 18.928 45.2279 16.9546 45.2279 14.736C45.2279 12.5173 45.7079 10.544 46.6679 8.81598C47.6492 7.06665 49.0039 5.71198 50.7319 4.75198C52.4599 3.77065 54.4332 3.27998 56.6519 3.27998C59.3399 3.27998 61.6012 3.93065 63.4359 5.23198C65.2919 6.53332 66.5185 8.33598 67.1159 10.64H61.0679Z" fill="url(#paint0_linear_2_261)"/>
<path d="M87.3629 16.784C87.3629 17.296 87.3309 17.8293 87.2669 18.384H74.8829C74.9682 19.4933 75.3202 20.3466 75.9389 20.944C76.5789 21.52 77.3575 21.808 78.2749 21.808C79.6402 21.808 80.5895 21.232 81.1229 20.08H86.9469C86.6482 21.2533 86.1042 22.3093 85.3149 23.248C84.5469 24.1866 83.5762 24.9226 82.4029 25.456C81.2295 25.9893 79.9175 26.256 78.4669 26.256C76.7175 26.256 75.1602 25.8826 73.7949 25.136C72.4295 24.3893 71.3629 23.3226 70.5949 21.936C69.8269 20.5493 69.4429 18.928 69.4429 17.072C69.4429 15.216 69.8162 13.5946 70.5629 12.208C71.3309 10.8213 72.3975 9.75465 73.7629 9.00798C75.1282 8.26132 76.6962 7.88798 78.4669 7.88798C80.1949 7.88798 81.7309 8.25065 83.0749 8.97598C84.4189 9.70132 85.4642 10.736 86.2109 12.08C86.9789 13.424 87.3629 14.992 87.3629 16.784ZM81.7629 15.344C81.7629 14.4053 81.4429 13.6586 80.8029 13.104C80.1629 12.5493 79.3629 12.272 78.4029 12.272C77.4855 12.272 76.7069 12.5386 76.0669 13.072C75.4482 13.6053 75.0642 14.3626 74.9149 15.344H81.7629Z" fill="url(#paint1_linear_2_261)"/>
<path d="M101.13 7.95198C103.22 7.95198 104.884 8.63465 106.122 9.99998C107.38 11.344 108.01 13.2 108.01 15.568V26H102.57V16.304C102.57 15.1093 102.26 14.1813 101.642 13.52C101.023 12.8586 100.191 12.528 99.1456 12.528C98.1003 12.528 97.2683 12.8586 96.6496 13.52C96.031 14.1813 95.7216 15.1093 95.7216 16.304V26H90.2496V8.14398H95.7216V10.512C96.2763 9.72265 97.023 9.10398 97.9616 8.65598C98.9003 8.18665 99.9563 7.95198 101.13 7.95198Z" fill="url(#paint2_linear_2_261)"/>
<path d="M114.564 6.28798C113.604 6.28798 112.815 6.01065 112.196 5.45598C111.599 4.87998 111.3 4.17598 111.3 3.34398C111.3 2.49065 111.599 1.78665 112.196 1.23198C112.815 0.655981 113.604 0.367981 114.564 0.367981C115.503 0.367981 116.271 0.655981 116.868 1.23198C117.487 1.78665 117.796 2.49065 117.796 3.34398C117.796 4.17598 117.487 4.87998 116.868 5.45598C116.271 6.01065 115.503 6.28798 114.564 6.28798ZM117.284 8.14398V26H111.812V8.14398H117.284Z" fill="url(#paint3_linear_2_261)"/>
<path d="M138.082 16.784C138.082 17.296 138.05 17.8293 137.986 18.384H125.602C125.687 19.4933 126.039 20.3466 126.658 20.944C127.298 21.52 128.076 21.808 128.994 21.808C130.359 21.808 131.308 21.232 131.842 20.08H137.666C137.367 21.2533 136.823 22.3093 136.034 23.248C135.266 24.1866 134.295 24.9226 133.122 25.456C131.948 25.9893 130.636 26.256 129.186 26.256C127.436 26.256 125.879 25.8826 124.514 25.136C123.148 24.3893 122.082 23.3226 121.314 21.936C120.546 20.5493 120.162 18.928 120.162 17.072C120.162 15.216 120.535 13.5946 121.282 12.208C122.05 10.8213 123.116 9.75465 124.482 9.00798C125.847 8.26132 127.415 7.88798 129.186 7.88798C130.914 7.88798 132.45 8.25065 133.794 8.97598C135.138 9.70132 136.183 10.736 136.93 12.08C137.698 13.424 138.082 14.992 138.082 16.784ZM132.482 15.344C132.482 14.4053 132.162 13.6586 131.522 13.104C130.882 12.5493 130.082 12.272 129.122 12.272C128.204 12.272 127.426 12.5386 126.786 13.072C126.167 13.6053 125.783 14.3626 125.634 15.344H132.482Z" fill="url(#paint4_linear_2_261)"/>
<defs>
<linearGradient id="paint0_linear_2_261" x1="45.3192" y1="-2.32869" x2="100.022" y2="62.6242" gradientUnits="userSpaceOnUse">
<stop stop-color="#FF7CE7"/>
<stop offset="1" stop-color="#458FE3"/>
</linearGradient>
<linearGradient id="paint1_linear_2_261" x1="45.3192" y1="-2.32869" x2="100.022" y2="62.6242" gradientUnits="userSpaceOnUse">
<stop stop-color="#FF7CE7"/>
<stop offset="1" stop-color="#458FE3"/>
</linearGradient>
<linearGradient id="paint2_linear_2_261" x1="45.3192" y1="-2.32869" x2="100.022" y2="62.6242" gradientUnits="userSpaceOnUse">
<stop stop-color="#FF7CE7"/>
<stop offset="1" stop-color="#458FE3"/>
</linearGradient>
<linearGradient id="paint3_linear_2_261" x1="45.3192" y1="-2.32869" x2="100.022" y2="62.6242" gradientUnits="userSpaceOnUse">
<stop stop-color="#FF7CE7"/>
<stop offset="1" stop-color="#458FE3"/>
</linearGradient>
<linearGradient id="paint4_linear_2_261" x1="45.3192" y1="-2.32869" x2="100.022" y2="62.6242" gradientUnits="userSpaceOnUse">
<stop stop-color="#FF7CE7"/>
<stop offset="1" stop-color="#458FE3"/>
</linearGradient>
</defs>
</svg>
